<svg width="25" height="25" viewBox="0 0 25 25" fill="none" xmlns="http://www.w3.org/2000/svg">
<path d="M12.5 0C5.61 0 0 5.61 0 12.5C0 15.89 1.4 19.18 3.84 21.52C6.03 23.63 8.87 24.83 11.9 24.97C12.05 24.98 12.21 25 12.36 25C12.38 25 12.41 25 12.43 25C12.45 25 12.48 25 12.5 25C15.73 25 18.79 23.78 21.13 21.55C23.63 19.16 25 15.95 25 12.5C25 5.61 19.39 0 12.5 0ZM20.91 20.33C20.45 18.7 18.27 17.82 16.63 17.17L16.07 16.94C15 16.5 15 16.09 15 15.5C15 15.08 15.21 14.48 15.59 14.12C16.56 13.27 17.07 12.1 17.07 10.74C17.07 7.99 15.15 6 12.5 6C9.86 6 8.02 7.95 8.02 10.74C8.02 12.16 8.5 13.3 9.43 14.12C9.82 14.47 9.99 15.08 9.99 15.5C9.99 15.92 9.99 16.44 8.69 16.97C7.09 17.63 4.97 18.53 4 20.23C2.09 18.12 1 15.35 1 12.5C1 6.16 6.16 1 12.5 1C18.84 1 24 6.16 24 12.5C24 15.44 22.9 18.19 20.91 20.33Z" fill="#0E1D25"/>
</svg>
